<svg width="1200" height="355" viewBox="0 0 1200 355" fill="none" xmlns="http://www.w3.org/2000/svg">
<path d="M207.484 134.726L111.097 352.661H103.355L6.19355 134.726H39.871L106.839 287.242L173.806 134.726H207.484Z" fill="#EE001D"/>
<path d="M375.759 94.8547H313.824V345.693H280.146V94.8547H217.824V62.3386H375.759V94.8547ZM590.9 345.693H558.771V245.048C558.771 225.435 558.126 211.629 556.836 203.629C555.803 195.629 553.223 188.145 549.094 181.177C544.965 173.951 539.287 168.532 532.061 164.919C525.094 161.048 516.578 159.113 506.513 159.113C496.707 159.113 487.287 161.435 478.255 166.081C469.223 170.726 461.481 177.177 455.029 185.435C448.578 193.693 444.061 202.468 441.481 211.758C439.158 221.048 437.997 239.629 437.997 267.5V345.693H405.868V55.3709H437.997V166.468C458.9 141.693 483.674 129.306 512.319 129.306C527.545 129.306 541.352 133.306 553.739 141.306C566.126 149.048 575.416 159.887 581.61 173.822C587.803 187.5 590.9 208.661 590.9 237.306V345.693ZM654.133 55.3709C661.101 55.3709 666.907 57.8225 671.552 62.7257C676.455 67.3709 678.907 73.1773 678.907 80.145C678.907 86.8547 676.455 92.6612 671.552 97.5644C666.907 102.21 661.101 104.532 654.133 104.532C647.423 104.532 641.617 102.081 636.714 97.1773C632.068 92.2741 629.746 86.5967 629.746 80.145C629.746 73.4354 632.068 67.6289 636.714 62.7257C641.617 57.8225 647.423 55.3709 654.133 55.3709ZM670.391 345.693H638.262V134.726H670.391V345.693ZM904.66 345.693H872.918V245.048C872.918 221.822 871.757 206.081 869.434 197.822C867.37 189.306 864.144 182.21 859.757 176.532C855.628 170.597 850.208 166.21 843.499 163.371C837.047 160.532 829.047 159.113 819.499 159.113C810.208 159.113 801.047 161.435 792.015 166.081C782.983 170.726 775.241 177.177 768.789 185.435C762.337 193.693 757.821 202.468 755.241 211.758C752.918 221.048 751.757 239.629 751.757 267.5V345.693H719.628V134.726H751.757V166.468C772.66 141.693 797.434 129.306 826.079 129.306C841.305 129.306 855.112 133.306 867.499 141.306C879.886 149.048 889.176 159.887 895.37 173.822C901.563 187.5 904.66 208.661 904.66 237.306V345.693ZM1121.57 345.693H1075.51L976.409 256.661V345.693H944.28V55.3709H976.409V214.468L1067.38 135.113L1114.99 134.726L998.861 235.371L1121.57 345.693Z" fill="#4A4A4A"/>
<ellipse cx="1162.28" cy="40.2858" rx="34.7411" ry="34.7411" stroke="#4A4A4A" stroke-width="5.95562"/>
<path d="M1175.53 59.2254H1169.78L1156.05 41.448H1154.46V59.2254H1149.88V20.2641H1157.86C1162.12 20.2641 1165.05 20.4593 1166.64 20.8496C1168.24 21.2044 1169.62 21.8254 1170.8 22.7125C1171.97 23.5996 1172.89 24.7528 1173.56 26.1722C1174.24 27.556 1174.57 29.0996 1174.57 30.8028C1174.57 34.0319 1173.47 36.6222 1171.27 38.5738C1169.07 40.4899 1165.9 41.448 1161.75 41.448L1175.53 59.2254ZM1154.46 36.977H1160.68C1163.81 37.0125 1166.11 36.5512 1167.6 35.5931C1169.09 34.5996 1169.84 33.0383 1169.84 30.9093C1169.84 28.7448 1169.11 27.1835 1167.66 26.2254C1166.2 25.2319 1163.93 24.7351 1160.84 24.7351H1154.46V36.977Z" fill="#4A4A4A"/>
<path d="M1175.53 59.2254V60.218H1177.56L1176.32 58.6171L1175.53 59.2254ZM1169.78 59.2254L1169 59.8322L1169.3 60.218H1169.78V59.2254ZM1156.05 41.448L1156.84 40.8412L1156.54 40.4554H1156.05V41.448ZM1154.46 41.448V40.4554H1153.46V41.448H1154.46ZM1154.46 59.2254V60.218H1155.45V59.2254H1154.46ZM1149.88 59.2254H1148.89V60.218H1149.88V59.2254ZM1149.88 20.2641V19.2715H1148.89V20.2641H1149.88ZM1166.64 20.8496L1166.41 21.8138L1166.42 21.8163L1166.43 21.8186L1166.64 20.8496ZM1170.8 22.7125L1171.39 21.9213L1171.39 21.9213L1170.8 22.7125ZM1173.56 26.1722L1172.67 26.5981L1172.67 26.6069L1173.56 26.1722ZM1171.27 38.5738L1171.93 39.3223L1171.93 39.3163L1171.27 38.5738ZM1161.75 41.448V40.4554H1159.72L1160.96 42.0562L1161.75 41.448ZM1154.46 36.977H1153.46V37.9696H1154.46V36.977ZM1160.68 36.977L1160.69 35.9844H1160.68V36.977ZM1167.6 35.5931L1168.14 36.4281L1168.15 36.4236L1168.15 36.419L1167.6 35.5931ZM1167.66 26.2254L1167.1 27.0451L1167.1 27.0498L1167.11 27.0544L1167.66 26.2254ZM1154.46 24.7351V23.7425H1153.46V24.7351H1154.46ZM1175.53 58.2328H1169.78V60.218H1175.53V58.2328ZM1170.57 58.6186L1156.84 40.8412L1155.27 42.0548L1169 59.8322L1170.57 58.6186ZM1156.05 40.4554H1154.46V42.4406H1156.05V40.4554ZM1153.46 41.448V59.2254H1155.45V41.448H1153.46ZM1154.46 58.2328H1149.88V60.218H1154.46V58.2328ZM1150.87 59.2254V20.2641H1148.89V59.2254H1150.87ZM1149.88 21.2567H1157.86V19.2715H1149.88V21.2567ZM1157.86 21.2567C1162.13 21.2567 1164.94 21.4555 1166.41 21.8138L1166.88 19.8854C1165.15 19.4631 1162.11 19.2715 1157.86 19.2715V21.2567ZM1166.43 21.8186C1167.9 22.146 1169.15 22.7121 1170.2 23.5037L1171.39 21.9213C1170.1 20.9387 1168.58 20.2629 1166.86 19.8806L1166.43 21.8186ZM1170.2 23.5037C1171.23 24.288 1172.06 25.3123 1172.67 26.5981L1174.46 25.7463C1173.72 24.1934 1172.7 22.9112 1171.39 21.9213L1170.2 23.5037ZM1172.67 26.6069C1173.27 27.8415 1173.58 29.234 1173.58 30.8028H1175.57C1175.57 28.9652 1175.2 27.2706 1174.46 25.7374L1172.67 26.6069ZM1173.58 30.8028C1173.58 33.7792 1172.58 36.0878 1170.62 37.8312L1171.93 39.3163C1174.37 37.1566 1175.57 34.2845 1175.57 30.8028H1173.58ZM1170.62 37.8253C1168.67 39.5288 1165.76 40.4554 1161.75 40.4554V42.4406C1166.04 42.4406 1169.48 41.4511 1171.93 39.3223L1170.62 37.8253ZM1160.96 42.0562L1174.75 59.8337L1176.32 58.6171L1162.53 40.8397L1160.96 42.0562ZM1154.46 37.9696H1160.68V35.9844H1154.46V37.9696ZM1160.67 37.9696C1163.86 38.0058 1166.4 37.5443 1168.14 36.4281L1167.07 34.7582C1165.82 35.5581 1163.75 36.0192 1160.69 35.9845L1160.67 37.9696ZM1168.15 36.419C1169.97 35.2047 1170.83 33.298 1170.83 30.9093H1168.84C1168.84 32.7786 1168.21 33.9945 1167.05 34.7673L1168.15 36.419ZM1170.83 30.9093C1170.83 28.5031 1170 26.5836 1168.2 25.3964L1167.11 27.0544C1168.22 27.7833 1168.84 28.9864 1168.84 30.9093H1170.83ZM1168.21 25.4057C1166.51 24.2428 1164 23.7425 1160.84 23.7425V25.7277C1163.86 25.7277 1165.89 26.221 1167.1 27.0451L1168.21 25.4057ZM1160.84 23.7425H1154.46V25.7277H1160.84V23.7425ZM1153.46 24.7351V36.977H1155.45V24.7351H1153.46Z" fill="#4A4A4A"/>
</svg>
